<?xml version="1.0" encoding="UTF-8" standalone="no"?>
<!-- Generator: Adobe Illustrator 19.0.0, SVG Export Plug-In . SVG Version: 6.00 Build 0)  -->

<svg
   xmlns:dc="http://purl.org/dc/elements/1.1/"
   xmlns:cc="http://creativecommons.org/ns#"
   xmlns:rdf="http://www.w3.org/1999/02/22-rdf-syntax-ns#"
   xmlns:svg="http://www.w3.org/2000/svg"
   xmlns="http://www.w3.org/2000/svg"
   xmlns:sodipodi="http://sodipodi.sourceforge.net/DTD/sodipodi-0.dtd"
   xmlns:inkscape="http://www.inkscape.org/namespaces/inkscape"
   version="1.1"
   id="Layer_1"
   x="0px"
   y="0px"
   viewBox="0 0 595.12225 621.06122"
   xml:space="preserve"
   inkscape:version="0.91 r13725"
   sodipodi:docname="logo_raw_silhouette.svg"
   width="595.12225"
   height="621.06122"><metadata
     id="metadata23"><rdf:RDF><cc:Work
         rdf:about=""><dc:format>image/svg+xml</dc:format><dc:type
           rdf:resource="http://purl.org/dc/dcmitype/StillImage" /><dc:title></dc:title></cc:Work></rdf:RDF></metadata><defs
     id="defs21" /><sodipodi:namedview
     pagecolor="#ffffff"
     bordercolor="#666666"
     borderopacity="1"
     objecttolerance="10"
     gridtolerance="10"
     guidetolerance="10"
     inkscape:pageopacity="0"
     inkscape:pageshadow="2"
     inkscape:window-width="1855"
     inkscape:window-height="1056"
     id="namedview19"
     showgrid="false"
     fit-margin-top="0"
     fit-margin-left="0"
     fit-margin-right="0"
     fit-margin-bottom="0"
     inkscape:zoom="0.5959596"
     inkscape:cx="524.77151"
     inkscape:cy="246.38511"
     inkscape:window-x="1985"
     inkscape:window-y="24"
     inkscape:window-maximized="1"
     inkscape:current-layer="g5" /><style
     type="text/css"
     id="style3">
	.st0{fill:#1EA6C6;stroke:#1EA6C6;stroke-width:3;stroke-miterlimit:10;}
	.st1{fill-rule:evenodd;clip-rule:evenodd;fill:#1EA6C6;stroke:#1EA6C6;stroke-width:3;stroke-miterlimit:10;}
</style><g
     id="g5"
     transform="translate(-4.722438,-68.742048)"><path
       class="st1"
       d="m 448.254,608.45097 c 2,5.6 6.3,8.8 11.1,11 6.9,3.2 7.5,7.7 5.5,14.4 -13.7,47 -71.6,69.2 -114,43.8 -15.9,-9.6 -26.9,-23 -33.4,-40.4 -1.8,-4.8 -1.9,-9.2 -0.3,-14.1 21.7,-66.5 43.3,-133 64.9,-199.6 5,-15.4 10,-30.8 14.9,-46.3 0.6,-1.7 2,-3.9 0.4,-5.3 -2.1,-1.9 -4,0.6 -5.6,1.6 -17.8,11.7 -35.6,23.6 -53.4,35.4 -2.4,1.6 -4.6,3.7 -9.4,4.1 23.3,-72.9 46.4,-145 69.6,-217.6 -4.2,-1 -6.3,1.6 -8.5,3 -20.2,13.5 -40.3,27.2 -60.5,40.7 -2.1,1.4 -4.2,4.3 -7,2.8 -2.4,-1.3 -1.4,-4.4 -1.5,-6.7 -1.6,-31 -2.9,-62 -4.6,-93 -2,-35.6 29.2,-69.600001 66.3,-71.800001 41.6,-2.4 68.8,15.8 82.2,55.700001 1.9,5.5 5.4,5.7 9.9,6 31.2,2.1 57.3,24.3 64,54.2 1.3,5.9 1.3,11.8 1,17.7 -0.3,5.5 1.9,8.9 6,12.3 26.2,22 34.3,49.9 26.9,82.9 -1.6,7 -4,7.7 -9.6,3.3 -8.1,-6.3 -17.6,-10 -28.4,-12.4 1.4,3.8 4.2,3.5 6.2,4.2 30.4,10.2 51.2,37 51.8,68.5 0.3,17.5 -5.4,33.7 -17.4,46.7 -5.5,5.9 -4.6,8.8 0.6,14.1 20.1,20.2 27,44.6 19.4,72.2 -7.7,27.6 -26.4,45 -54.2,51.3 -18.5,4.2 -36.5,1.3 -53,-8.9 -2.9,-1.8 -5.8,-3.7 -9.3,-6 -0.4,3.6 2,4.4 3.5,5.4 17.6,11.7 36.7,17.2 57.7,12.4 7.2,-1.6 9.8,0.4 10.5,7.3 3.6,34.3 -22.2,66.2 -55.9,67.4 -16.5,0.6 -31,-3.4 -43.3,-14.6 -0.8,-0.5 -2,-1 -3.1,-1.7 z"
       id="path15"
       inkscape:connector-curvature="0"
       style="clip-rule:evenodd;fill:#000000;fill-rule:evenodd;stroke:#000000;stroke-width:3;stroke-miterlimit:10;stroke-opacity:1" /><path
       class="st1"
       d="m 156.95399,609.25097 c -2.9,-0.3 -3.8,1.3 -5,2.3 -18.9,15.6 -45.1,18.5 -65.999996,7.2 -22,-11.9 -35,-36.6 -32.1,-60.8 0.8,-6.7 3,-9.3 10.4,-7.6 21.3,4.8 40.599996,-0.5 58.299996,-12.8 1.1,-0.8 2.1,-1.7 3.1,-2.6 0.3,-0.3 0.1,-0.9 0.2,-1.4 -1.9,-0.9 -3,0.6 -4.2,1.5 -29.799996,22.6 -73.799996,17.6 -97.399996,-10.5 -26.0999998,-31.1 -23.6999998,-72 5.6,-101.7 4,-4 4.7,-6.8 0.8,-11.4 -34.8999998,-41.5 -18.6,-99.3 32.6,-116.7 2.2,-0.8 4.8,-0.7 7.7,-4.5 -11.1,1.7 -19.4,6.1 -27.4,11.1 -9.5,6 -10.3,6 -12.4,-5.1 -5.9,-32.1 2.3,-59.4 28.2,-80.3 4.4,-3.5 5.8,-7.4 5.4,-12.6 -3,-35.8 27.8,-70.2 66.499996,-71.2 4.7,-0.1 7.1,-1.8 8.5,-6.7 8.6,-30.700001 34.8,-53.000001 64.1,-54.900001 37.60001,-2.5 65.70001,13.4 79.60001,44.800001 3.9,8.9 4.7,17.5 1.5,27.3 -25.5,78.9 -50.4,158 -75.50001,237 -0.7,2.2 -2.3,4.4 -0.3,8 22.10001,-14.5 44.00001,-28.9 66.00001,-43.3 2.6,2.8 0.5,4.9 -0.1,6.9 -21.9,69.8 -44,139.6 -66.00001,209.4 -0.3,1 -0.7,2 -1,3.1 -0.4,1.7 -1.9,3.8 0.3,5.1 1.6,0.9 3,-0.6 4.3,-1.5 11.20001,-7.5 22.40001,-15.1 33.60001,-22.6 10.3,-7 20.6,-13.8 30.9,-20.9 4.3,-3 6.4,-3.3 6.6,3 0.9,24.3 2,48.5 3.1,72.8 0.1,3.2 0,6.5 0.3,9.7 2.8,33.3 -12.2,58.7 -42.7,72.2 -42.10001,18.7 -92.60001,-4 -105.50001,-47.4 -2.1,-7 -1.8,-11.7 5.9,-14.6 5,-1.7 8.9,-5.2 12.1,-10.3 z"
       id="path17"
       inkscape:connector-curvature="0"
       style="clip-rule:evenodd;fill:#000000;fill-rule:evenodd;stroke:#000000;stroke-width:3;stroke-miterlimit:10;stroke-opacity:1" /></g></svg>