<?xml version="1.0" encoding="UTF-8" standalone="no"?>
<!-- Generator: Adobe Illustrator 19.0.0, SVG Export Plug-In . SVG Version: 6.00 Build 0)  -->

<svg
   xmlns:dc="http://purl.org/dc/elements/1.1/"
   xmlns:cc="http://creativecommons.org/ns#"
   xmlns:rdf="http://www.w3.org/1999/02/22-rdf-syntax-ns#"
   xmlns:svg="http://www.w3.org/2000/svg"
   xmlns="http://www.w3.org/2000/svg"
   xmlns:sodipodi="http://sodipodi.sourceforge.net/DTD/sodipodi-0.dtd"
   xmlns:inkscape="http://www.inkscape.org/namespaces/inkscape"
   version="1.1"
   id="Layer_1"
   x="0px"
   y="0px"
   viewBox="0 0 900 935.14911"
   xml:space="preserve"
   inkscape:version="0.91 r13725"
   sodipodi:docname="logo_background.svg"
   width="900"
   height="935.14911"><metadata
     id="metadata23"><rdf:RDF><cc:Work
         rdf:about=""><dc:format>image/svg+xml</dc:format><dc:type
           rdf:resource="http://purl.org/dc/dcmitype/StillImage" /><dc:title /></cc:Work></rdf:RDF></metadata><defs
     id="defs21" /><sodipodi:namedview
     pagecolor="#ffffff"
     bordercolor="#666666"
     borderopacity="1"
     objecttolerance="10"
     gridtolerance="10"
     guidetolerance="10"
     inkscape:pageopacity="0"
     inkscape:pageshadow="2"
     inkscape:window-width="1855"
     inkscape:window-height="1056"
     id="namedview19"
     showgrid="false"
     inkscape:zoom="0.84281415"
     inkscape:cx="373.79472"
     inkscape:cy="563.47173"
     inkscape:window-x="1985"
     inkscape:window-y="24"
     inkscape:window-maximized="1"
     inkscape:current-layer="g4136"
     fit-margin-top="50"
     fit-margin-left="50"
     fit-margin-right="50"
     fit-margin-bottom="50" /><style
     type="text/css"
     id="style3">
	.st0{fill:#1EA6C6;stroke:#1EA6C6;stroke-width:3;stroke-miterlimit:10;}
	.st1{fill-rule:evenodd;clip-rule:evenodd;fill:#1EA6C6;stroke:#1EA6C6;stroke-width:3;stroke-miterlimit:10;}
</style><g
     id="g5"
     transform="translate(40.531652,228.56798)"><g
       id="g4136"
       transform="matrix(1.3447132,0,0,1.3447132,-3.2638652,-226.33222)"><path
         style="clip-rule:evenodd;fill:#f0f0f2;fill-opacity:1;fill-rule:evenodd;stroke:#f0f0f2;stroke-width:2.99949598;stroke-miterlimit:10;stroke-opacity:1"
         inkscape:connector-curvature="0"
         id="path15"
         d="m 452.85082,575.22912 c 1.99932,5.60002 6.29788,8.80002 11.09626,11.00002 6.89768,3.2 7.49748,7.7 5.49814,14.4 -13.69538,47.00004 -71.57588,69.20006 -113.96158,43.80004 -15.89464,-9.6 -26.89094,-23.00002 -33.38876,-40.40002 -1.79938,-4.80002 -1.89936,-9.20002 -0.2999,-14.10002 21.6927,-66.50006 43.28542,-133.0001 64.87814,-199.60016 4.99832,-15.40002 9.99664,-30.80002 14.89498,-46.30005 0.5998,-1.7 1.99932,-3.9 0.39986,-5.3 -2.09928,-1.9 -3.99864,0.6 -5.5981,1.6 -17.794,11.7 -35.58802,23.60003 -53.38202,35.40003 -2.39918,1.6 -4.59844,3.7 -9.39682,4.1 23.29214,-72.90007 46.38436,-145.00013 69.57654,-217.60016 -4.19858,-1.00002 -6.29788,1.6 -8.49714,3 -20.19318,13.5 -40.28642,27.20002 -60.4796,40.70001 -2.0993,1.4 -4.1986,4.3 -6.99766,2.8 -2.39918,-1.3 -1.39952,-4.4 -1.49948,-6.7 -1.59946,-31.00001 -2.89902,-62.00003 -4.59846,-93.00006 -1.99932,-35.60003 29.19016,-69.600058 66.27766,-71.80006 41.586,-2.400002 68.77682,15.800014 82.17232,55.700046 1.89936,5.500004 5.39818,5.700004 9.89666,6.000004 31.18948,2.1 57.2807,24.30002 63.97844,54.20004 1.29956,5.9 1.29956,11.80002 0.99966,17.70002 -0.2999,5.5 1.89936,8.9 5.99798,12.3 26.19118,22.00001 34.28844,49.90003 26.89094,82.90007 -1.59946,7 -3.99866,7.7 -9.59676,3.3 -8.09728,-6.3 -17.59408,-10.00002 -28.39044,-12.40002 1.39952,3.80002 4.19858,3.50002 6.19792,4.20002 30.38974,10.2 51.18274,37.00002 51.78254,68.50004 0.2999,17.50002 -5.39818,33.70005 -17.39414,46.70005 -5.49814,5.90002 -4.59844,8.80002 0.5998,14.10002 20.09322,20.20002 26.9909,44.60004 19.39346,72.20006 -7.6974,27.60002 -26.3911,45.00004 -54.18174,51.30004 -18.49376,4.2 -36.4877,1.3 -52.98214,-8.9 -2.89902,-1.80002 -5.79804,-3.70002 -9.29686,-6.00002 -0.39988,3.6 1.99932,4.4 3.49882,5.40001 17.59406,11.70001 36.68762,17.20001 57.68056,12.40001 7.19756,-1.6 9.7967,0.4 10.49646,7.3 3.59878,34.30004 -22.19252,66.20006 -55.88118,67.40006 -16.49444,0.6 -30.98954,-3.4 -43.2854,-14.60002 -0.79974,-0.5 -1.99934,-1 -3.09896,-1.7 z"
         class="st1" /><path
         style="clip-rule:evenodd;fill:#f0f0f2;fill-opacity:1;fill-rule:evenodd;stroke:#f0f0f2;stroke-width:2.99949598;stroke-miterlimit:10;stroke-opacity:1"
         inkscape:connector-curvature="0"
         id="path17"
         d="m 161.64896,576.02912 c -2.89902,-0.3 -3.79872,1.3 -4.99832,2.30002 -18.89362,15.6 -45.0848,18.5 -65.977762,7.2 C 68.68029,573.62912 55.68467,548.9291 58.583692,524.72908 c 0.79973,-6.7 2.99899,-9.3 10.396496,-7.6 21.292824,4.8 40.586332,-0.5 58.280352,-12.80002 1.09964,-0.8 2.0993,-1.7 3.09896,-2.6 0.2999,-0.3 0.1,-0.9 0.19994,-1.4 -1.89936,-0.9 -2.999,0.6 -4.19858,1.5 -29.789956,22.60002 -73.775146,17.60002 -97.367196,-10.5 C 2.9024575,460.22904 5.3016479,419.329 34.591778,389.62898 c 3.998652,-4 4.698416,-6.8 0.79973,-11.40002 -34.88824185,-41.50003 -18.593734,-99.30009 32.589018,-116.70009 2.199258,-0.8 4.798382,-0.7 7.697406,-4.50002 -11.096262,1.7 -19.393464,6.10002 -27.39077,11.10002 -9.4968,6 -10.29653,6 -12.395822,-5.1 -5.898012,-32.10004 2.299225,-59.40006 28.1905,-80.30007 4.398518,-3.5 5.798046,-7.4 5.39818,-12.6 -2.99899,-35.80004 27.790644,-70.200058 66.4776,-71.20006 4.69842,-0.1 7.0976,-1.8 8.49714,-6.700004 8.5971,-30.700026 34.78826,-53.000044 64.0784,-54.900046 37.58734,-2.500002 65.67786,13.400012 79.57318,44.800036 3.89868,8.900008 4.69842,17.500016 1.4995,27.300024 -25.49142,78.90007 -50.38302,158.00012 -75.47456,237.00018 -0.69978,2.2 -2.29924,4.4 -0.2999,8.00001 22.09254,-14.50001 43.98516,-28.90003 65.97776,-43.30003 2.59912,2.8 0.49982,4.9 -0.1,6.9 -21.89264,69.80007 -43.98518,139.60013 -65.97778,209.40017 -0.2999,1 -0.69976,2.00002 -0.99966,3.10002 -0.39986,1.7 -1.89936,3.8 0.2999,5.1 1.59946,0.9 2.999,-0.6 4.29856,-1.5 11.19622,-7.50002 22.39244,-15.10002 33.58868,-22.60002 10.29652,-7 20.59306,-13.80002 30.88958,-20.90002 4.29856,-3 6.39784,-3.3 6.59778,3 0.8997,24.30002 1.99932,48.50004 3.09896,72.80006 0.1,3.2 0,6.5 0.2999,9.7 2.79906,33.30004 -12.1959,58.70006 -42.68562,72.20006 -42.08582,18.70002 -92.5688,-4 -105.46446,-47.40004 -2.0993,-7 -1.7994,-11.7 5.89802,-14.6 4.99832,-1.7 8.897,-5.2 12.09592,-10.30002 z"
         class="st1" /></g></g></svg>