<?xml version="1.0" encoding="UTF-8" standalone="no"?>
<!-- Generator: Adobe Illustrator 19.0.0, SVG Export Plug-In . SVG Version: 6.00 Build 0)  -->

<svg
   xmlns:dc="http://purl.org/dc/elements/1.1/"
   xmlns:cc="http://creativecommons.org/ns#"
   xmlns:rdf="http://www.w3.org/1999/02/22-rdf-syntax-ns#"
   xmlns:svg="http://www.w3.org/2000/svg"
   xmlns="http://www.w3.org/2000/svg"
   xmlns:sodipodi="http://sodipodi.sourceforge.net/DTD/sodipodi-0.dtd"
   xmlns:inkscape="http://www.inkscape.org/namespaces/inkscape"
   version="1.1"
   id="Layer_1"
   x="0px"
   y="0px"
   viewBox="0 0 35.999999 37.567803"
   xml:space="preserve"
   inkscape:version="0.91 r13725"
   sodipodi:docname="logo_menu.svg"
   width="36"
   height="37.567802"><metadata
     id="metadata23"><rdf:RDF><cc:Work
         rdf:about=""><dc:format>image/svg+xml</dc:format><dc:type
           rdf:resource="http://purl.org/dc/dcmitype/StillImage" /><dc:title></dc:title></cc:Work></rdf:RDF></metadata><defs
     id="defs21" /><sodipodi:namedview
     pagecolor="#cd6767"
     bordercolor="#666666"
     borderopacity="1"
     objecttolerance="10"
     gridtolerance="10"
     guidetolerance="10"
     inkscape:pageopacity="1"
     inkscape:pageshadow="2"
     inkscape:window-width="1855"
     inkscape:window-height="1056"
     id="namedview19"
     showgrid="false"
     fit-margin-top="0"
     fit-margin-left="0"
     fit-margin-right="0"
     fit-margin-bottom="0"
     inkscape:zoom="6.7425131"
     inkscape:cx="-0.97870866"
     inkscape:cy="2.0914825"
     inkscape:window-x="1985"
     inkscape:window-y="24"
     inkscape:window-maximized="1"
     inkscape:current-layer="g5"
     showguides="false"
     inkscape:showpageshadow="true" /><style
     type="text/css"
     id="style3">
	.st0{fill:#1EA6C6;stroke:#1EA6C6;stroke-width:3;stroke-miterlimit:10;}
	.st1{fill-rule:evenodd;clip-rule:evenodd;fill:#1EA6C6;stroke:#1EA6C6;stroke-width:3;stroke-miterlimit:10;}
</style><g
     id="g5"
     transform="translate(-4.7224304,-652.23545)"><path
       class="st1"
       d="m 31.552474,684.88225 c 0.120987,0.3384 0.381096,0.5319 0.671463,0.6651 0.417394,0.1935 0.453691,0.4653 0.332704,0.8712 -0.828739,2.8431 -4.331209,4.18609 -6.89606,2.6496 -0.961819,-0.5805 -1.627227,-1.39131 -2.020424,-2.44395 -0.108891,-0.2907 -0.114939,-0.5562 -0.01818,-0.8532 1.312673,-4.02273 2.619293,-8.04546 3.925916,-12.07422 0.302463,-0.93159 0.604917,-1.86309 0.901325,-2.80071 0.03627,-0.1026 0.120987,-0.2358 0.02421,-0.3204 -0.127035,-0.1152 -0.241965,0.036 -0.338751,0.0972 -1.076754,0.7074 -2.153507,1.42758 -3.230259,2.14146 -0.14518,0.0972 -0.278263,0.2241 -0.568621,0.2484 1.409459,-4.40982 2.806818,-8.77131 4.210227,-13.16296 -0.254061,-0.063 -0.381096,0.0972 -0.514179,0.1818 -1.221934,0.8163 -2.437818,1.64538 -3.659752,2.46204 -0.127035,0.081 -0.254061,0.2601 -0.423441,0.1692 -0.145179,-0.081 -0.08469,-0.2664 -0.09073,-0.405 -0.0968,-1.87524 -0.175428,-3.75048 -0.278262,-5.62572 -0.120987,-2.15343 1.76636,-4.2102 4.010603,-4.34331 2.516457,-0.1449 4.161832,0.9558 4.972422,3.36942 0.114939,0.333 0.326655,0.3447 0.598869,0.3627 1.887342,0.1269 3.466177,1.46988 3.871471,3.27861 0.07866,0.3573 0.07866,0.7137 0.06048,1.07073 -0.01818,0.333 0.114939,0.5382 0.362952,0.7443 1.584883,1.33083 2.074867,3.01852 1.627228,5.01481 -0.0968,0.4239 -0.241965,0.4662 -0.580716,0.1998 -0.489987,-0.3816 -1.064655,-0.6048 -1.717966,-0.7497 0.08469,0.2295 0.254061,0.2115 0.375048,0.2538 1.838949,0.6174 3.097178,2.23821 3.133474,4.14369 0.01818,1.05867 -0.326656,2.03859 -1.052558,2.82501 -0.332703,0.3573 -0.278262,0.5328 0.03627,0.8532 1.215885,1.22193 1.633278,2.69793 1.17354,4.36752 -0.465787,1.6695 -1.596982,2.72205 -3.278653,3.1032 -1.119097,0.2538 -2.207949,0.081 -3.206063,-0.5382 -0.175428,-0.1089 -0.350847,-0.2241 -0.562572,-0.3627 -0.02421,0.2178 0.120987,0.2664 0.211725,0.3267 1.064654,0.7074 2.220047,1.0404 3.490374,0.7497 0.435537,-0.0972 0.592822,0.027 0.635167,0.4419 0.217773,2.07486 -1.342918,4.00455 -3.38149,4.07709 -0.998114,0.036 -1.875245,-0.2061 -2.619293,-0.8829 -0.04842,-0.027 -0.120987,-0.063 -0.187524,-0.1026 z"
       id="path15"
       inkscape:connector-curvature="0"
       style="clip-rule:evenodd;fill:#ffffff;fill-rule:evenodd;stroke:#ffffff;stroke-width:0.18147525;stroke-miterlimit:10;stroke-opacity:1" /><path
       class="st1"
       d="m 13.931225,684.93067 c -0.175428,-0.018 -0.229869,0.081 -0.302463,0.1395 -1.143294,0.94365 -2.728178,1.11906 -3.9924536,0.4356 -1.3308191,-0.72 -2.1172124,-2.214 -1.9417862,-3.67785 0.04842,-0.405 0.1814761,-0.5625 0.6291183,-0.4599 1.288475,0.2907 2.4559645,-0.027 3.5266695,-0.774 0.06651,-0.045 0.127035,-0.1026 0.187525,-0.1575 0.01818,-0.018 0.006,-0.054 0.01206,-0.081 -0.11494,-0.054 -0.181477,0.036 -0.254071,0.0909 -1.802653,1.3671 -4.4642898,1.0647 -5.8918956,-0.6354 -1.5788345,-1.88127 -1.4336545,-4.35546 0.3387511,-6.15204 0.2419651,-0.2421 0.2843102,-0.4113 0.04842,-0.6894 -2.1111623,-2.51046 -1.1251471,-6.00687 1.9720311,-7.05942 0.1330831,-0.045 0.2903582,-0.045 0.4657862,-0.2718 -0.6714542,0.1026 -1.17354,0.369 -1.6574738,0.6714 -0.5746683,0.3627 -0.6230613,0.3627 -0.7500963,-0.3087 -0.3569042,-1.94184 0.139131,-3.59326 1.7058677,-4.85758 0.2661661,-0.2115 0.3508472,-0.4473 0.3266552,-0.7623 -0.1814761,-2.16567 1.6816714,-4.24656 4.0227014,-4.30704 0.28431,-0.006 0.429489,-0.1089 0.514179,-0.405 0.520227,-1.85715 2.105112,-3.20607 3.87752,-3.321 2.27449,-0.1512 3.974309,0.8109 4.815144,2.70999 0.235917,0.5382 0.28431,1.05867 0.09073,1.65141 -1.542539,4.77279 -3.048783,9.55774 -4.567128,14.33656 -0.04239,0.1332 -0.139131,0.2664 -0.01818,0.4842 1.33687,-0.8775 2.661639,-1.74816 3.992457,-2.61927 0.157275,0.1692 0.03024,0.2961 -0.006,0.4176 -1.324769,4.22226 -2.661637,8.44461 -3.992457,12.66696 -0.01818,0.063 -0.04239,0.1206 -0.06048,0.1872 -0.02421,0.1026 -0.114939,0.2295 0.01818,0.3087 0.0968,0.054 0.181477,-0.036 0.260119,-0.0909 0.677511,-0.4536 1.355015,-0.91341 2.032522,-1.3671 0.623062,-0.4239 1.246131,-0.8343 1.869196,-1.26423 0.260118,-0.1818 0.387144,-0.1998 0.39924,0.1818 0.05445,1.46997 0.120987,2.93382 0.187524,4.40379 0.006,0.1935 0,0.3933 0.01818,0.5868 0.16938,2.01438 -0.738,3.55086 -2.582999,4.36752 -2.546703,1.13113 -5.601536,-0.2421 -6.38188,-2.86731 -0.127035,-0.4239 -0.108891,-0.7074 0.356904,-0.8829 0.302463,-0.1026 0.53838,-0.315 0.731952,-0.6228 z"
       id="path17"
       inkscape:connector-curvature="0"
       style="clip-rule:evenodd;fill:#ffffff;fill-rule:evenodd;stroke:#ffffff;stroke-width:0.18147525;stroke-miterlimit:10;stroke-opacity:1" /></g></svg>